<?xml version="1.0" encoding="UTF-8"?><svg id="Camada_2" xmlns="http://www.w3.org/2000/svg" viewBox="0 0 240 64.23"><defs><style>.cls-1{fill:#fff;}</style></defs><g id="Camada_1-2"><g><g><g><g><path class="cls-1" d="M68.35,58.71c7.23,1.54,.92,7.97-3.5,4.51l.8-.69c5.08,2.52,7.23-2.79,.73-3.23-4.98-2.15,.84-6.24,4.06-4v1.2c-3.15-2.63-7.84,1.4-2.09,2.2"/><path class="cls-1" d="M72.99,57.23h1.16v6.77h-1.16v-6.77Zm1.16-1.64h-1.16v-.87h1.16v.87Z"/><path class="cls-1" d="M78.42,60.15c5.33,1.41,.64,5.68-2.75,3.34v-1.07c1.65,1.7,6.33,.4,2.94-1.24-5.18-.6-3.19-5.38,1.14-3.75v.98c-2.45-1.42-5.08,.97-1.33,1.73"/><path class="cls-1" d="M85.48,64c-1.61,.15-2.95-.53-2.88-2.31v-5.66h1.13v1.23h1.75v.87h-1.75c.22,1.38-.88,5.54,1.75,4.97v.9Z"/><path class="cls-1" d="M90.01,57.96c-1.28-.02-2.3,1.06-2.4,2.3h4.75c-.06-1.25-1.03-2.34-2.35-2.3m2.35,5.62c-3.47,2.29-7.95-2.27-4.85-5.43,2.23-2.33,6.45-.43,5.96,2.85h-5.86c.15,2.33,3.26,2.93,4.75,1.49v1.1Z"/><path class="cls-1" d="M103.18,57.09c3.7-.08,3.32,4.4,3.24,6.91h-1.1v-1.33h-.01c-.04-.65,.11-2.64-.14-3.23-.51-1.94-3.47-1.93-3.99,0-.27,.56-.09,3.92-.14,4.57h-1.1c-.05-.67,.13-3.99-.14-4.57-.41-1.53-2.61-2-3.59-.74-1,1.34-.38,3.75-.54,5.31h-1.11c.08-.95-.21-4.13,.25-4.96,.9-2.3,4.36-2.62,5.67-.54,.6-.87,1.6-1.42,2.69-1.41"/><path class="cls-1" d="M113.5,60.81c-4.04-1.41-6.35,1.88-2.72,2.53,1.45,.04,3.03-.92,2.72-2.53m-2.11-3.72c4.04-.4,3.06,4.42,3.15,6.91h-1.06v-1.03c-6.37,4.53-8.24-5.33,0-2.92,.21-2.46-2.87-2.35-4.44-1.55v-.97c.78-.3,1.46-.45,2.34-.44"/><path class="cls-1" d="M125.3,64.12c-7.57,.96-7.54-10.28,0-9.35v.95c-6.04-.95-6.03,8.39,0,7.45v.95Z"/><path class="cls-1" d="M129.41,57.99c-3.42-.14-3.35,5.4,.03,5.27,3.44,.14,3.37-5.4-.03-5.27m.01,6.18c-4.98,.2-4.94-7.27,.03-7.06,5-.2,4.94,7.26-.03,7.06"/><path class="cls-1" d="M142.84,57.09c3.7-.08,3.32,4.4,3.24,6.91h-1.1v-1.33h-.01c-.04-.65,.11-2.64-.14-3.23-.51-1.94-3.47-1.93-3.99,0-.27,.56-.09,3.92-.14,4.57h-1.1c-.05-.67,.13-3.99-.14-4.57-.41-1.53-2.61-2-3.59-.74-1,1.34-.38,3.75-.54,5.31h-1.11c.08-.95-.21-4.13,.25-4.96,.9-2.3,4.36-2.62,5.67-.54,.6-.87,1.6-1.42,2.69-1.41"/><path class="cls-1" d="M150.51,56.24l1.23-1.57h1.37l-1.76,1.57h-.83Zm.61,1.72c-1.28-.02-2.3,1.06-2.4,2.3h4.75c-.06-1.25-1.03-2.34-2.35-2.3m2.35,5.62c-3.47,2.29-7.95-2.27-4.85-5.43,2.23-2.33,6.45-.43,5.96,2.85h-5.86c.15,2.33,3.26,2.93,4.75,1.49v1.1Z"/><path class="cls-1" d="M159.15,57.13v1c-3.29-.29-2.44,3.8-2.53,5.87h-1.1c-.12-2.75-.41-7.22,3.63-6.88"/><path class="cls-1" d="M163.97,64.13c-6.07,.78-6.04-7.75,0-6.98v.9c-4.5-.83-4.49,5.94,0,5.17v.91Z"/><path class="cls-1" d="M165.42,57.23h1.16v6.77h-1.16v-6.77Zm1.16-1.64h-1.16v-.87h1.16v.87Z"/><path class="cls-1" d="M171.43,57.99c-3.42-.14-3.35,5.4,.03,5.27,3.44,.14,3.37-5.4-.03-5.27m.01,6.18c-4.98,.2-4.94-7.27,.03-7.06,5-.2,4.94,7.26-.03,7.06"/></g><rect class="cls-1" y="60.5" width="53.89" height=".65"/><rect class="cls-1" x="185.92" y="60.5" width="54.08" height=".65"/></g><g><path class="cls-1" d="M16.79,28.65c1.49,0,2.41,.91,2.62,2.25h-5.32c.28-1.37,1.23-2.25,2.69-2.25m2.49,5.99c-1.17,.34-1.67,.37-2.36,.34-1.38-.07-2.5-.84-2.82-2.2h8.33c.02-.28,.04-.46,.04-.75v-.04c0-3-1.68-5.81-5.72-5.81-3.48,0-5.87,2.54-5.87,5.61,0,3.25,2.35,5.53,5.84,5.53,.53,0,1.3-.02,2.56-.33v-2.36Z"/><path class="cls-1" d="M63.19,31.37c0-2.92-1.78-5.2-5.54-5.2s-5.55,2.28-5.55,5.2v5.72h3.49v-5.93c.06-1.08,.49-2.36,2.06-2.36s2.03,1.28,2.09,2.36v5.93h3.45v-5.72Z"/><path class="cls-1" d="M55.56,31.37c0-2.92-1.78-5.2-5.54-5.2s-5.54,2.28-5.54,5.2v5.72h3.48v-5.93c.06-1.08,.49-2.36,2.06-2.36s2.03,1.28,2.09,2.36v5.93h3.45v-5.72Z"/><polygon class="cls-1" points="3.49 25.4 3.49 28.23 9.79 28.23 9.79 31.16 3.49 31.16 3.49 37.08 0 37.08 0 22.47 11.31 22.47 11.31 25.4 3.49 25.4"/><rect class="cls-1" x="92.79" y="26.41" width="3.47" height="10.68"/><rect class="cls-1" x="92.79" y="22.46" width="3.47" height="2.37"/><path class="cls-1" d="M31.34,34.93c-.25,.04-.51,.07-.78,.07-2.17,0-3.93-1.46-3.93-3.25s1.76-3.25,3.93-3.25c.26,0,.52,.02,.78,.06v-2.27c-.47-.07-.97-.1-1.5-.1-3.74,0-6.57,2.39-6.57,5.59,0,2.26,1.38,3.92,3.06,4.79,1.15,.6,2.39,.79,3.4,.79,.6,0,1.11-.04,1.61-.13v-2.31Z"/><path class="cls-1" d="M37.58,34.84c-2.07,0-2.51-1.4-2.51-3.11s.44-3.11,2.51-3.11,2.51,1.39,2.51,3.11-.43,3.11-2.51,3.11m0-8.7c-3.25,0-5.88,2.5-5.88,5.59s2.63,5.59,5.88,5.59,5.88-2.5,5.88-5.59-2.63-5.59-5.88-5.59"/><path class="cls-1" d="M91.26,34.93c-.25,.04-.51,.07-.78,.07-2.17,0-3.93-1.46-3.93-3.25s1.76-3.25,3.93-3.25c.26,0,.52,.02,.78,.06v-2.27c-.47-.07-.97-.1-1.5-.1-3.74,0-6.57,2.39-6.57,5.59,0,2.26,1.39,3.92,3.06,4.79,1.15,.6,2.39,.79,3.4,.79,.6,0,1.11-.04,1.61-.13v-2.31Z"/><path class="cls-1" d="M103.01,34.84c-2.06,0-2.51-1.4-2.51-3.11s.45-3.11,2.51-3.11,2.51,1.39,2.51,3.11-.43,3.11-2.51,3.11m0-8.7c-3.25,0-5.88,2.5-5.88,5.59s2.63,5.59,5.88,5.59,5.88-2.5,5.88-5.59-2.63-5.59-5.88-5.59"/><path class="cls-1" d="M83.31,26.09s-.52-.04-.92-.04c-3.6,0-5.82,1.98-5.82,4.62v6.43h3.52v-6.23c0-1.34,.45-1.71,1.2-2.03,.5-.21,1.22-.36,2.02-.38v-2.37Z"/><path class="cls-1" d="M69.92,28.65c1.49,0,2.41,.91,2.62,2.25h-5.32c.28-1.37,1.23-2.25,2.69-2.25m2.49,5.99c-1.17,.34-1.67,.37-2.36,.34-1.38-.07-2.5-.84-2.82-2.2h8.33c.02-.28,.04-.46,.04-.75v-.04c0-3-1.68-5.81-5.72-5.81-3.49,0-5.87,2.53-5.87,5.61,0,3.25,2.35,5.54,5.84,5.54,.53,0,1.3-.02,2.56-.33v-2.36Z"/><polygon class="cls-1" points="68.35 24.87 70.8 21.2 73.65 22.38 70.87 24.87 68.35 24.87"/><path class="cls-1" d="M144.74,3.8h-15.71c-3.44,0-6.96,1.85-8.59,3.02-7.85,5.61-11.71,16.96-11.71,16.96,1.09-1.9,9.1-16.56,19.96-16.56h11.48s.03,1.9-.97,3.21c6.23-2.15,5.54-6.63,5.54-6.63"/><path class="cls-1" d="M131,11.55c-.02,.37-.1,1.45-.61,2.4h0c5.13-.44,7.6-1.98,8.77-3.51-1.96,.67-4.59,1.11-8.15,1.11"/><path class="cls-1" d="M127.29,14.09s-1.11-.01-3.17-.06c-8.24-.19-12.14,5.81-14.05,8.72,1.91-1.99,5.63-5.69,12.38-5.57,5.23,.1,7.17-1.59,7.95-3.25-.95,.09-1.98,.17-3.11,.15"/><path class="cls-1" d="M125.52,33.99l-.14-.4c-.19-.56-.5-1.05-.92-1.46l-.38-.36,.45-.27c1.47-.89,2.24-2.28,2.24-4.02v-.04c0-2.96-2.3-4.89-5.87-4.95v1.9c1.72,.19,2.92,1.44,2.92,3.12v.04c0,1.44-1.09,2.93-2.92,3.12v2.11c.82,.29,1.38,.82,1.64,1.56h0l1.14,2.83h3.07l-1.22-3.18h-.01Zm-4.61-11.5c-.05,0-.11,0-.16,0h-5.66v14.68h2.89v-4.63h1.32c.61,0,1.15,.08,1.6,.24v-2.11c-.13,.01-.26,.02-.4,.02h-2.52v-6.33h2.45c.16,0,.32,0,.47,.03v-1.9Z"/><path class="cls-1" d="M133.4,24.95c-1.19-1.44-2.98-2.34-4.85-2.46v14.66h2.84v-10.55l.71,.86,8.01,9.69h2.55v-14.67h-2.84v10.24l-.71-.86-5.71-6.91Z"/><path class="cls-1" d="M160.96,29.7c0-.9-.73-1.63-1.63-1.63s-1.63,.73-1.63,1.63,.73,1.63,1.63,1.63,1.63-.73,1.63-1.63"/></g></g><g><path class="cls-1" d="M239.95,34.91h-.23c-3.04,0-5.27-1.96-5.27-4.64v-.08c0-2.57,2.23-4.59,5.06-4.59,.15,0,.3,.01,.44,.01v-3.1h-.41c-5.54,0-9.74,3.32-9.74,7.76v.04c0,4.32,4.25,7.69,9.67,7.69,.16,0,.32,0,.48-.01v-3.08Z"/><path class="cls-1" d="M183.83,28.42c-3.27-.7-3.74-1.03-3.74-2.07v-.05c0-.76,.85-1.37,2.44-1.37,.82,0,1.88,.22,2.63,.5v-3.31c-.7-.12-1.76-.26-2.57-.26-3.88,0-6.63,1.89-6.63,4.76v.03c0,3.13,2.45,4.02,6.27,4.82,3.17,.68,3.46,1.14,3.46,2v.05c0,.93-1.02,1.49-2.73,1.49-2.17,0-3.61-.73-5.31-1.92l-2.46,2.45c2.27,1.69,4.82,2.53,7.69,2.53,4.08,0,6.95-1.75,6.95-4.88v-.05c0-2.75-2.17-3.89-6.01-4.73h0Z"/><path class="cls-1" d="M193.38,29.82c.32-1.66,1.44-2.75,3.17-2.75s2.83,1.11,3.07,2.75h-6.24Zm3.17-5.69h0c-4.26,0-7.23,3.04-7.23,6.73v.04c0,3.96,3.24,6.68,7.63,6.68,.13,0,.54-.03,.65-.03v-2.94c-.1,0-.49,.03-.61,.03-1.85,0-3.15-.87-3.57-2.53h10.08c.02-.34,.06-.56,.06-.92v-.05c0-3.67-2.15-7.01-7.02-7.01h0Z"/><path class="cls-1" d="M216.71,30.5c0-3.49-2.15-6.23-6.66-6.23s-6.67,2.74-6.67,6.23v6.85h4.19v-7.09c.07-1.3,.58-2.83,2.47-2.83s2.43,1.52,2.5,2.83v7.09h4.16v-6.85Z"/><path class="cls-1" d="M223.52,24.2c-.19,0-.82,0-.99,.01v3.12c.79,.02,1.9,.15,2.4,.41,.71,.38,1.09,1.03,1.11,1.9-.98-.12-2.09-.19-3.07-.22-3.95-.11-5.9,1.2-6.3,3.3-.01,.03-.02,.08-.02,.12,0,0-.01,.02-.01,.03-.03,.2-.05,.41-.05,.63v.04c0,2.56,2.26,3.97,5.01,3.97,2.03,0,3.42-.66,4.42-1.65v1.49h4.01v-7.59c0-3.5-1.99-5.57-6.51-5.57h0Zm2.55,8.55h0c-.37,1.88-2.31,2.17-2.76,2.19-3.15,.17-3.26-1.98-2.2-2.64,1.43-.89,4.97-.39,4.97-.39,0,.13,.03,.45-.01,.84h0Z"/><path class="cls-1" d="M219.13,.69c-1.1-.26-2.21-.5-3.36-.68-.05,0-.1,0-.13-.01-1.63,1.2-3.13,2.54-4.49,3.96,1.5-.23,3.02-.37,4.58-.42,5.45-.2,10.63,.69,15.3,2.39-3.37-2.32-7.44-4.16-11.9-5.25h0Z"/><path class="cls-1" d="M216.82,12.48c6.06-2.86,12.4-4.06,18.37-3.8-5.14-2.27-11.06-3.47-17.31-3.25-3.08,.12-6.06,.57-8.87,1.31-1.41,1.89-2.57,3.92-3.45,6.06,1.36,1.33,2.83,2.59,4.44,3.75,2.07-1.54,4.35-2.91,6.81-4.07h0Z"/><path class="cls-1" d="M207.03,7.43c-1.71,.45-3.34,1.06-4.88,1.79l2.37,2.65c.64-1.56,1.49-3.05,2.51-4.43h0Z"/><path class="cls-1" d="M209.04,17.4c-1.37-.99-2.64-2.07-3.81-3.22-1.09,2.62-1.68,5.42-1.68,8.34,1.58-1.87,3.42-3.59,5.49-5.12h0Z"/></g></g></g></svg>